<svg xmlns="http://www.w3.org/2000/svg" viewBox="0 0 64 64" fill="none">
  <title>Kakuzu stitched heart symbol</title>
  <defs>
    <linearGradient id="heart" x1="16" y1="12" x2="48" y2="53" gradientUnits="userSpaceOnUse">
      <stop stop-color="#4c555e"/>
      <stop offset=".55" stop-color="#22282f"/>
      <stop offset="1" stop-color="#0b0e12"/>
    </linearGradient>
    <filter id="s" x="-30%" y="-30%" width="160%" height="160%">
      <feDropShadow dx="0" dy="2" stdDeviation="2" flood-color="#000" flood-opacity=".55"/>
    </filter>
  </defs>
  <path d="M32 54C20.4 45.2 11 36.6 11 25.5 11 17.8 16.8 12 24.4 12c3.9 0 6.6 1.6 7.6 4.2C33 13.6 35.8 12 39.6 12 47.2 12 53 17.8 53 25.5 53 36.6 43.6 45.2 32 54Z" fill="url(#heart)" stroke="#85909c" stroke-width="1.6" filter="url(#s)"/>
  <path d="M32 16v35" stroke="#e0222c" stroke-width="2.1" stroke-linecap="round"/>
  <path d="m27 20 10 5m-10 3 10 5m-10 3 10 5m-10 3 10 5" stroke="#ff7b80" stroke-width="1.8" stroke-linecap="round"/>
  <path d="M20 26c3-2.5 5.6-2.5 8 0M36 26c2.4-2.5 5-2.5 8 0" stroke="#b7c0ca" stroke-width="1.5" stroke-linecap="round" opacity=".75"/>
  <circle cx="25" cy="27" r="2.2" fill="#ff3d45"/>
  <circle cx="39" cy="27" r="2.2" fill="#ff3d45"/>
  <path d="M22 37c4.6 3.2 9 4.6 13.3 4.2" stroke="#79838e" stroke-width="1.3" stroke-linecap="round"/>
  <circle cx="48" cy="46" r="8" fill="#c5912b" stroke="#ffe2a6" stroke-width="1.3"/>
  <path d="M48 41v10M44.8 43.5h4.4a2.2 2.2 0 0 1 0 4.4h-4.4" stroke="#2b1800" stroke-width="1.7" stroke-linecap="round" stroke-linejoin="round"/>
</svg>
